<svg xmlns="http://www.w3.org/2000/svg" width="91.158" height="22.865">
    <path d="M11.431 22.865a11.433 11.433 0 010-22.865 11.432 11.432 0 018.086 19.517 11.362 11.362 0 01-8.086 3.348zm-.649-3.487a.65.65 0 001.3 0 .526.526 0 00.366.309.8.8 0 00.153.015.843.843 0 00.343-.073.609.609 0 00.348-.826.606.606 0 00.5.272.653.653 0 00.276-.063.627.627 0 00.363-.87c-.252-.6-.5-1.193-.757-1.788l-.65-1.535c-.016-.037-.03-.075-.045-.113a3.168 3.168 0 00-.081-.193l-.021-.045a1.038 1.038 0 00-.088-.164.4.4 0 00-.111-.1 2.424 2.424 0 011.212.456l.061.042h.006a.088.088 0 00.053.02.809.809 0 00.185-.048.308.308 0 01.093-.014.355.355 0 01.169.043 1.82 1.82 0 01.255.163l.168.13c.2.157.412.319.608.491.13.116.28.285.257.437s-.345.457-.469.576l-.013.013a.251.251 0 00-.058.291.683.683 0 00.63.36h.07a.44.44 0 01-.151-.373h.036a.289.289 0 00.2-.071.439.439 0 00.087-.255.445.445 0 01.078-.24 2.154 2.154 0 011.077-.205h.045a.333.333 0 00.237-.081.264.264 0 00.056-.2c.18.013.271.125.271.333a.382.382 0 00.161-.379c-.019-.109-.111-.3-.515-.37a.374.374 0 01.245-.1.259.259 0 01.2.089.216.216 0 00-.01-.218.443.443 0 00-.4-.2.8.8 0 00-.3.063.193.193 0 00-.156-.061c-.139 0-.39.095-.794.546a3.37 3.37 0 01-.259-.21c-.266-.244-.942-.9-.971-.933a2.076 2.076 0 00-.562-1.566 1.565 1.565 0 00-.877-.372 3.043 3.043 0 00.256-.481 1.114 1.114 0 00.733.323.427.427 0 00.461-.478 1.034 1.034 0 00.724.361.5.5 0 00.532-.469 2.677 2.677 0 00.138.608l.005.015c.259.692.644 1.043 1.143 1.043v.05a1.349 1.349 0 00.934 1.417.216.216 0 01.116.053 3.9 3.9 0 001.989.837.21.21 0 00.112-.022l-.006-.018c-.117-.084-.293-.211-.323-.731-.019-.368-.058-2.217-.058-4.827 0-2.556-1.059-4.057-3.064-4.34a2.588 2.588 0 00-.358-.026 1.483 1.483 0 00-.917.281 1.436 1.436 0 00-.47 1.788.319.319 0 00.031.076.349.349 0 01-.074.465 1.469 1.469 0 01-.882.452.616.616 0 01-.07 0 .649.649 0 01-.476-.225 2.229 2.229 0 01-.64-1.218 2.393 2.393 0 01.1-1.376 1.66 1.66 0 011.346-.89.756.756 0 01.705-.345 1.572 1.572 0 01.348.04c.2.043.265.1.312.194a.893.893 0 00.15-.542.289.289 0 00-.13-.188 3.266 3.266 0 00-1.046-.3.338.338 0 00-.108-.237 1.229 1.229 0 00-.855-.244 3.52 3.52 0 00-.612.059 3.379 3.379 0 01-.589.058c-.717 0-.9-.314-.9-.318a1.022 1.022 0 00.542.971 5.19 5.19 0 00-1.271 2.948 5.206 5.206 0 00-1.27-2.948 1.016 1.016 0 00.542-.971c-.036.055-.251.318-.9.318a3.374 3.374 0 01-.589-.058 3.522 3.522 0 00-.614-.047c-.667 0-.965.242-.965.482a3.242 3.242 0 00-1.044.3.288.288 0 00-.13.188.9.9 0 00.15.543c.046-.092.11-.15.312-.194a1.574 1.574 0 01.347-.04.752.752 0 01.7.345 1.664 1.664 0 011.347.89 2.279 2.279 0 01.1 1.376 2.288 2.288 0 01-.64 1.218.653.653 0 01-.476.225.6.6 0 01-.069 0A1.469 1.469 0 017.35 8.3a.348.348 0 01-.074-.465.288.288 0 00.026-.064v-.013a1.435 1.435 0 00-.462-1.796 1.485 1.485 0 00-.916-.281 2.586 2.586 0 00-.357.026C3.034 6.064 2.5 8.264 2.5 10.047c0 2.745-.042 4.523-.057 4.827-.03.524-.208.65-.326.733l-.013.009a.206.206 0 00.111.022 3.906 3.906 0 001.993-.838.214.214 0 01.114-.053 1.348 1.348 0 00.935-1.42v-.047c.5 0 .885-.352 1.144-1.044l.005-.014a2.63 2.63 0 00.138-.608.458.458 0 00.135.315.551.551 0 00.4.154 1.03 1.03 0 00.722-.361.5.5 0 00.125.357.456.456 0 00.337.121A1.119 1.119 0 009 11.878a2.924 2.924 0 00.255.481 1.57 1.57 0 00-.877.372 2.071 2.071 0 00-.566 1.569l-.037.036c-.463.452-.777.754-.934.9a3.567 3.567 0 01-.26.21c-.4-.451-.654-.546-.793-.546a.19.19 0 00-.156.061.8.8 0 00-.3-.062.443.443 0 00-.4.2.215.215 0 00-.009.217.258.258 0 01.2-.089.374.374 0 01.245.1c-.4.066-.5.259-.515.368a.39.39 0 00.161.382c0-.208.092-.32.271-.333a.263.263 0 00.056.2.332.332 0 00.236.081h.036a2.2 2.2 0 011.087.206.445.445 0 01.078.241.44.44 0 00.086.254.3.3 0 00.222.072h.019a.439.439 0 01-.151.373h.071a.682.682 0 00.629-.361.251.251 0 00-.058-.291l-.007-.007c-.113-.109-.459-.439-.477-.582s.129-.323.259-.437c.189-.168.393-.326.59-.478l.185-.143A1.925 1.925 0 018.4 14.7a.355.355 0 01.169-.042.327.327 0 01.093.013.81.81 0 00.185.048.086.086 0 00.053-.019h.006l.061-.041a2.417 2.417 0 011.212-.456.409.409 0 00-.111.1.939.939 0 00-.088.165l-.02.044c-.03.063-.056.129-.081.193l-.045.113-.408.962-1 2.36a.626.626 0 00.362.87.651.651 0 00.276.063.61.61 0 00.5-.271.609.609 0 00.348.826.839.839 0 00.343.073.806.806 0 00.153-.015.527.527 0 00.365-.305zm20.222-3.685h-.038c-.077 0-.232-.005-.429-.012-.3-.01-.68-.023-.963-.023a5.37 5.37 0 00-.624.034c.075-1.446.086-3.458.086-4.528 0-2.144-.029-3.474-.086-3.955l.8.042c.545.03 1.114.058 1.281.058.577 0 1.8-.055 2.528-.1a3.854 3.854 0 00-.032.419c0 .05.008.137.017.229l.015.168a19.106 19.106 0 00-1.98-.163c-.2 0-1.093.022-1.573.07v2.929h.544c1.3 0 3.481.3 3.481 2.345.005 1.557-1.128 2.486-3.027 2.487zm-1-4.214v3.536c.242.01.6.023.915.023 1.3 0 2.012-.655 2.012-1.844.002-1.25-.791-1.715-2.925-1.715zm9.148 4.153a.636.636 0 01-.688-.485l-.068-.241a3.075 3.075 0 01-1.806.726c-1.031 0-1.672-.554-1.672-1.451s.579-1.423 1.771-1.641l1.136-.208c.35-.061.583-.16.583-.451 0-1.074-.39-1.512-1.36-1.512a1.474 1.474 0 00-1.5.905h-.139v-.682a2.535 2.535 0 011.909-.76 1.764 1.764 0 011.979 1.949v2.732c0 .58.131.694.356.694a1.021 1.021 0 00.265-.045l.067.265a2 2 0 01-.833.205zm-.744-2.959l-.737.11c-.728.11-1.695.359-1.695 1.236 0 .65.364.98 1.081.98a1.81 1.81 0 001.351-.629v-1.7zm2.879-2.694c.127 0 .368-.024.542-.034-.093.862-.1 2.293-.1 2.351.484.022 1.188.045 1.559.045s1.108-.023 1.455-.045c0-.069-.013-1.5-.1-2.351.193.01.448.034.586.034s.362-.024.535-.034c-.092.852-.1 2.282-.1 2.873 0 .477.013 2.01.1 2.874a4.052 4.052 0 00-.53-.034 5.112 5.112 0 00-.6.034c.091-.865.1-2.4.1-2.761-.508-.036-1.2-.081-1.466-.081-.314 0-1.084.024-1.548.058 0 .387.012 1.919.1 2.784a4.11 4.11 0 00-.521-.033 5.183 5.183 0 00-.6.034c.091-.865.1-2.4.1-2.874 0-.581-.009-2.022-.1-2.874.194.01.448.034.588.034m6.633 0c.125 0 .368-.024.54-.034-.091.852-.1 2.293-.1 2.5h.186c.377 0 2.328-2.183 2.515-2.5.161.01.423.034.563.034.118 0 .4-.023.566-.034l-2.758 2.431c.348.409 2.18 2.442 3.012 3.318a9.933 9.933 0 00-.69-.034c-.21 0-.521.012-.763.034a32.983 32.983 0 00-2.445-2.949h-.186c0 .421.011 2.079.1 2.944a4.022 4.022 0 00-.528-.029 5.244 5.244 0 00-.6.034c.094-.865.107-2.4.107-2.874 0-.581-.013-2.022-.107-2.875.2.01.449.034.588.034m7.98 5.713c.056-1.084.088-2.739.088-4.529 0-2.104-.03-3.471-.088-3.955l.394.014h.006c.257.01.523.02.685.02.2 0 .431-.01.653-.019.188-.008.362-.015.491-.015 1.971 0 2.771.615 2.771 2.123 0 2.077-1.757 2.51-3.231 2.51-.1 0-.51-.023-.714-.049v2.016a18.2 18.2 0 00.088 1.879 4.567 4.567 0 00-.55-.035 4.958 4.958 0 00-.593.039zm2.015-7.829c-.187 0-.807.012-.959.034v3.279a3.287 3.287 0 00.453.047c1.543 0 2.393-.671 2.393-1.89-.002-.989-.618-1.47-1.887-1.47zm6.075 7.77a2.651 2.651 0 01-2.755-2.783 2.782 2.782 0 012.853-3.017 2.646 2.646 0 012.723 2.862 3.053 3.053 0 01-.763 2.1 2.729 2.729 0 01-2.058.838zm.064-5.372a1.525 1.525 0 00-1.332.786 3.4 3.4 0 00-.441 1.768c0 1.1.441 2.39 1.685 2.39 1.075 0 1.8-1.026 1.8-2.554 0-1.156-.449-2.39-1.707-2.39zm8.499 1.015h-.135a1.822 1.822 0 00-1.6-.855 2.136 2.136 0 00-2 2.383 2.2 2.2 0 002.234 2.417 1.93 1.93 0 001.57-.74l.1.119-.139.523a3.5 3.5 0 01-1.891.514 2.752 2.752 0 01-2.974-2.811 2.815 2.815 0 013.128-2.822 4.374 4.374 0 012 .471zm5.919 0h-.137a1.817 1.817 0 00-1.6-.855 2.137 2.137 0 00-2 2.384 2.207 2.207 0 002.24 2.416 1.931 1.931 0 001.566-.739l.1.122-.136.523a3.5 3.5 0 01-1.892.514 2.752 2.752 0 01-2.972-2.815 2.815 2.815 0 013.127-2.822 4.379 4.379 0 012 .471zm1.414 4.383c-.068 0-.268.022-.357.034.089-.864.1-2.4.1-2.874 0-.581-.011-2.022-.1-2.875.191.012.433.035.568.035s.354-.023.523-.035c-.091.853-.098 2.283-.098 2.874 0 .477.009 1.147.02 1.465.613-.759 2.798-3.588 3.323-4.339a1.585 1.585 0 00.332.035c.067 0 .3-.023.426-.035-.091.853-.1 2.283-.1 2.874 0 .477.012 2.011.1 2.874a3.841 3.841 0 00-.512-.034 4.872 4.872 0 00-.582.034c.089-.864.1-2.4.1-2.874 0-.592-.012-1.317-.023-1.557a49.2 49.2 0 00-3.397 4.433 1.4 1.4 0 00-.324-.035m6.538 0c-.068 0-.268.022-.354.034.086-.864.1-2.4.1-2.874 0-.581-.014-2.022-.1-2.875.188.012.43.035.564.035s.358-.023.526-.035c-.09.853-.1 2.283-.1 2.874 0 .477.01 1.147.022 1.465.613-.759 2.795-3.588 3.319-4.339a1.644 1.644 0 00.335.035c.066 0 .3-.023.423-.035-.087.853-.1 2.283-.1 2.874 0 .477.012 2.011.1 2.874a3.821 3.821 0 00-.513-.034 4.8 4.8 0 00-.576.034c.09-.864.1-2.4.1-2.874 0-.592-.01-1.317-.022-1.557a49.864 49.864 0 00-3.402 4.433 1.383 1.383 0 00-.321-.035" fill="#f83346"/>
</svg>