<svg xmlns="http://www.w3.org/2000/svg" width="221.621" height="63.102">
    <path d="M201.081 63.102h-4.317v-7.687h2.612l7.533-19.3h4.519l7.589 19.3h2.605V63.1h-4.317v-3.5h-16.224v3.5zm8.133-20.808l-5.157 13.121h10.314zM96.945 60.191a11.684 11.684 0 01-8.782-3.662 12.175 12.175 0 01-3.5-8.683 12.25 12.25 0 0112.251-12.317 11.7 11.7 0 018.564 3.609 12.043 12.043 0 013.584 8.791 11.912 11.912 0 01-3.538 8.7 11.689 11.689 0 01-8.579 3.562zm-.1-20.279a7.348 7.348 0 00-5.457 2.268 7.929 7.929 0 00-2.213 5.762 7.543 7.543 0 002.785 6.16 7.622 7.622 0 004.966 1.772 7.258 7.258 0 005.391-2.3 7.843 7.843 0 002.229-5.664 7.884 7.884 0 00-2.246-5.675 7.324 7.324 0 00-5.453-2.323zm67.273 19.691h-4.648l9.093-23.485h4.5l9.037 23.484h-4.646l-1.832-4.841h-9.627l-1.876 4.841zm6.7-17.244l-3.183 8.085h6.351zm-54.935 17.244h-4.36l4.051-23.485h4.333l5.467 16.38 5.495-16.38h4.323l3.937 23.484h-4.315l-2.506-14.833-4.971 14.833h-3.947l-4.95-14.833-2.557 14.833zm-50.027 0h-4.742l9.071-23.485h4.535l9.042 23.483h-4.779l-6.515-17.214-6.612 17.215zm124.149 0h-4.449V36.118h4.748a15.758 15.758 0 015.549.709 5.665 5.665 0 012.687 2.3 7.135 7.135 0 01.981 3.811 6.4 6.4 0 01-1.292 4.089 6.688 6.688 0 01-3.5 2.268 20.047 20.047 0 01-4.726.365v9.942zm0-19.134v4.84h1.434a7.91 7.91 0 002.349-.239 2.117 2.117 0 001.041-.8 2.363 2.363 0 00.376-1.346 2.14 2.14 0 00-1.063-1.99 6.093 6.093 0 00-2.867-.468zm-40.681 19.133h-6.591V36.118h12.3v4.317h-7.851v4.547h.981a15.276 15.276 0 014.873.654 6.345 6.345 0 013.157 2.463 7.38 7.38 0 011.259 4.29 7.193 7.193 0 01-.943 3.914 7.216 7.216 0 01-2.6 2.382 9.584 9.584 0 01-4.585.917zm-2.142-10.631v6.378h1.132c2.046 0 3.361-.269 3.909-.8a2.866 2.866 0 00.817-2.154c0-2.272-1.656-3.424-4.922-3.424z" fill="#3a3f4d"/><path d="M8.478 49.587V20.32H0V10.208c6.143 0 10.761-3.515 10.761-9.549h10.352v48.928h8.478v10.028H0V49.587h8.478M38.94 23.895h-4.654v-2.923a13.727 13.727 0 01-2.8-.768 13.953 13.953 0 01-2.325-1.163l2.327-3.639a8.873 8.873 0 001.1.631 13.41 13.41 0 001.312.557 10.451 10.451 0 001.374.4 6.192 6.192 0 001.287.148 4.354 4.354 0 001.77-.247.893.893 0 00.483-.867.772.772 0 00-.137-.445 1.373 1.373 0 00-.47-.383 5.258 5.258 0 00-.9-.372 16.945 16.945 0 00-1.435-.384 25.426 25.426 0 01-2.723-.792 6.5 6.5 0 01-1.933-1.053 4 4 0 01-1.155-1.527 5.607 5.607 0 01-.38-2.203 4.761 4.761 0 011.213-3.33 6.254 6.254 0 013.392-1.794V.752h4.654v2.963a10.222 10.222 0 012.439.656 10.658 10.658 0 012.066 1.151l-2.339 3.64a10.658 10.658 0 00-2.335-1.213 7.375 7.375 0 00-2.5-.421 2.376 2.376 0 00-1.435.3.967.967 0 00-.347.767.718.718 0 00.137.434 1.257 1.257 0 00.458.346 5.368 5.368 0 00.86.32c.361.107.827.228 1.387.359a22.127 22.127 0 012.83.867 7.2 7.2 0 011.964 1.114 4.01 4.01 0 011.147 1.535 5.473 5.473 0 01.372 2.1 5.848 5.848 0 01-.335 2.055 4.469 4.469 0 01-.961 1.535 5.02 5.02 0 01-1.481 1.052 7.718 7.718 0 01-1.927.607v2.976zm11.348-1.692a3.82 3.82 0 01-2.859-.963 4.856 4.856 0 01-.83-3.181v-7.064h-1.981V7.504h1.981V2.453L51.281.695v6.809h2.822v3.491h-2.822v6.127a1.446 1.446 0 00.272 1.015 1.152 1.152 0 00.841.273 2.162 2.162 0 00.854-.174 5.79 5.79 0 00.929-.52l-.569 3.789a8.048 8.048 0 01-3.32.701z" fill="#69b53e"/><path d="M135.096 24.8a11.756 11.756 0 01-8.831-3.678 12.256 12.256 0 01-3.519-8.732 12.321 12.321 0 011.639-6.227A12.342 12.342 0 01135.063 0a11.774 11.774 0 018.612 3.629 12.115 12.115 0 013.607 8.842 11.99 11.99 0 01-3.558 8.749 11.767 11.767 0 01-8.628 3.58zm-.1-20.391a7.4 7.4 0 00-5.482 2.278 7.988 7.988 0 00-2.226 5.8 7.6 7.6 0 002.8 6.194 7.719 7.719 0 004.994 1.781 7.309 7.309 0 005.422-2.313 7.9 7.9 0 002.242-5.7 7.936 7.936 0 00-2.262-5.706 7.373 7.373 0 00-5.487-2.336zM65.79 24.208h-4.676L70.257.592h4.528l9.088 23.613h-4.676l-1.841-4.868h-9.68l-1.886 4.87zm6.737-17.339L69.326 15h6.388zm43.243 17.338h-4.572V5.032h-4.177V.592h13.057v4.44h-4.308v19.174zm-20.313 0h-7.211V.592h4.295a19.87 19.87 0 014.747.417 6.452 6.452 0 013.388 2.091 5.51 5.51 0 011.26 3.6 5.3 5.3 0 01-.57 2.451 6.206 6.206 0 01-1.852 2.065 7.427 7.427 0 013.141 2.527 6.412 6.412 0 01.993 3.585 6.7 6.7 0 01-1.034 3.623 6.607 6.607 0 01-2.662 2.449 10.3 10.3 0 01-4.495.807zM92.719 13.88v6.052h1.707a7.148 7.148 0 003.826-.707 2.382 2.382 0 00.987-2.056 2.867 2.867 0 00-1.157-2.407 8.576 8.576 0 00-4.416-.882zm0-9.012v5h1.57a3.794 3.794 0 002.494-.7 2.359 2.359 0 00.812-1.885 2.2 2.2 0 00-.773-1.766 3.6 3.6 0 00-2.352-.652zM61.114 29.917h160.508v1.417H61.114z" fill="#3a3f4d"/>
</svg>