<svg xmlns="http://www.w3.org/2000/svg" width="36.143" height="35.789">
    <path d="M18.068 35.789a18.039 18.039 0 01-12.776-5.242 17.772 17.772 0 010-25.306 18.2 18.2 0 0125.558 0 17.769 17.769 0 010 25.306 18.049 18.049 0 01-12.782 5.242zm-1.026-5.456a1.027 1.027 0 002.053 0 .832.832 0 00.58.483 1.269 1.269 0 00.239.022 1.35 1.35 0 00.546-.115 1.039 1.039 0 00.555-.514 1.027 1.027 0 00-.005-.779.96.96 0 00.792.425 1.037 1.037 0 00.437-.1.979.979 0 00.574-1.362c-.39-.916-.784-1.836-1.165-2.725l-1.059-2.475a5.96 5.96 0 01-.075-.185 4.07 4.07 0 00-.124-.295l-.04-.083a1.5 1.5 0 00-.133-.244.612.612 0 00-.175-.16 3.841 3.841 0 011.915.715l.1.064.01.006a.143.143 0 00.084.031 1.271 1.271 0 00.294-.076.494.494 0 01.148-.022.556.556 0 01.266.068 2.922 2.922 0 01.4.254l.276.212c.317.243.645.494.95.762s.436.495.408.684c-.028.219-.544.713-.739.9l-.024.023a.389.389 0 00-.093.452 1.078 1.078 0 001 .567h.111a.682.682 0 01-.239-.582h.03a.486.486 0 00.349-.112.679.679 0 00.138-.4.677.677 0 01.123-.375 3.42 3.42 0 011.694-.322h.08a.525.525 0 00.374-.127.412.412 0 00.089-.307c.285.02.428.2.428.522a.6.6 0 00.254-.594c-.03-.172-.176-.475-.814-.58a.592.592 0 01.386-.157.412.412 0 01.315.14.336.336 0 00-.015-.339.7.7 0 00-.628-.319 1.271 1.271 0 00-.47.1.31.31 0 00-.248-.1c-.22 0-.616.148-1.255.855l-.038-.029c-.126-.1-.255-.194-.372-.3a90.846 90.846 0 01-1.535-1.461 3.227 3.227 0 00-.887-2.45 2.511 2.511 0 00-1.386-.582 4.589 4.589 0 00.4-.752 1.77 1.77 0 001.159.507.672.672 0 00.729-.748 1.642 1.642 0 001.144.565.782.782 0 00.84-.735 4.148 4.148 0 00.219.951l.009.025c.41 1.082 1.017 1.63 1.8 1.63v.08a2.112 2.112 0 001.479 2.213.347.347 0 01.184.083 6.185 6.185 0 003.144 1.311.334.334 0 00.176-.034l-.024-.017c-.185-.132-.464-.331-.511-1.146-.031-.6-.091-3.512-.091-7.554 0-4-1.674-6.351-4.842-6.793a4.128 4.128 0 00-.565-.041 2.362 2.362 0 00-1.449.44 2.233 2.233 0 00-.743 2.8.46.46 0 00.049.119.544.544 0 01-.117.729 2.332 2.332 0 01-1.4.707.982.982 0 01-.111.006 1.029 1.029 0 01-.751-.353 3.48 3.48 0 01-1.012-1.906A3.68 3.68 0 0121.4 9.28a2.623 2.623 0 012.126-1.394 1.2 1.2 0 011.116-.54 2.481 2.481 0 01.549.062c.318.067.419.158.494.3a1.4 1.4 0 00.237-.848.452.452 0 00-.207-.3 5.23 5.23 0 00-1.652-.462.525.525 0 00-.168-.369 1.947 1.947 0 00-1.352-.384 5.622 5.622 0 00-.97.092 5.411 5.411 0 01-.93.089c-1.136 0-1.423-.492-1.426-.5a1.6 1.6 0 00.856 1.52 8.085 8.085 0 00-2.009 4.612 8.109 8.109 0 00-2.008-4.612 1.6 1.6 0 00.856-1.52c-.055.085-.384.5-1.426.5a5.4 5.4 0 01-.929-.089 5.624 5.624 0 00-.97-.092c-1.052 0-1.523.379-1.523.754a5.265 5.265 0 00-1.651.462.451.451 0 00-.205.3 1.4 1.4 0 00.238.848c.073-.145.174-.236.494-.3a2.482 2.482 0 01.549-.062 1.192 1.192 0 011.112.54A2.63 2.63 0 0114.73 9.28a3.543 3.543 0 01.157 2.154 3.577 3.577 0 01-1.011 1.906 1.04 1.04 0 01-.753.353.962.962 0 01-.11-.006 2.332 2.332 0 01-1.395-.707.542.542 0 01-.117-.729.375.375 0 00.042-.1l.008-.024a2.232 2.232 0 00-.745-2.8 2.359 2.359 0 00-1.448-.44 4.126 4.126 0 00-.565.041c-4 .559-4.844 4-4.844 6.793 0 3.985-.059 6.931-.089 7.554-.048.82-.328 1.018-.514 1.149l-.021.015a.333.333 0 00.175.034 6.2 6.2 0 003.15-1.307.336.336 0 01.181-.083 2.109 2.109 0 001.478-2.223v-.073c.79 0 1.4-.55 1.807-1.632l.009-.024a4.057 4.057 0 00.219-.951.711.711 0 00.211.491.875.875 0 00.629.244 1.637 1.637 0 001.142-.565.762.762 0 00.2.557.723.723 0 00.533.191 1.776 1.776 0 001.16-.507 4.48 4.48 0 00.4.752 2.5 2.5 0 00-1.386.582 3.226 3.226 0 00-.887 2.45l-.039.038c-.716.693-1.247 1.2-1.495 1.423a5.224 5.224 0 01-.411.328c-.638-.707-1.034-.855-1.254-.855a.3.3 0 00-.247.1 1.279 1.279 0 00-.47-.1.7.7 0 00-.63.319.334.334 0 00-.014.338.41.41 0 01.315-.14.6.6 0 01.387.157c-.638.1-.785.406-.815.577a.6.6 0 00.254.6c0-.326.145-.5.428-.522a.411.411 0 00.089.308.531.531 0 00.372.127h.072a3.462 3.462 0 011.7.322.689.689 0 01.123.376.681.681 0 00.136.4.471.471 0 00.329.113h.051a.682.682 0 01-.238.582h.113a1.075 1.075 0 00.998-.566.39.39 0 00-.093-.453l-.007-.01c-.179-.17-.725-.686-.753-.91s.2-.5.41-.684c.3-.261.615-.506.924-.743l.3-.231a3.046 3.046 0 01.4-.254.551.551 0 01.265-.067.513.513 0 01.148.021 1.273 1.273 0 00.294.076.138.138 0 00.083-.031l.009-.006.093-.063a3.828 3.828 0 011.918-.716.636.636 0 00-.175.16 1.5 1.5 0 00-.137.255l-.034.072c-.046.1-.085.2-.123.293-.025.063-.049.125-.076.186l-.874 2.043-.012.028c-.438 1.022-.89 2.078-1.338 3.129a.977.977 0 00.572 1.362 1.034 1.034 0 00.436.1.968.968 0 00.8-.425 1.029 1.029 0 00-.005.779 1.04 1.04 0 00.555.514 1.34 1.34 0 00.545.115 1.271 1.271 0 00.24-.022.836.836 0 00.578-.48z" fill="#f83346"/>
</svg>